<svg width="14" height="14" viewBox="0 0 14 14" fill="none" xmlns="http://www.w3.org/2000/svg">
<path d="M6.99992 10.3333C7.18881 10.3333 7.34725 10.2693 7.47525 10.1413C7.60325 10.0133 7.66703 9.85511 7.66659 9.66666V6.99999C7.66659 6.81111 7.60259 6.65288 7.47459 6.52533C7.34659 6.39777 7.18836 6.33377 6.99992 6.33333C6.81147 6.33288 6.65325 6.39688 6.52525 6.52533C6.39725 6.65377 6.33325 6.81199 6.33325 6.99999V9.66666C6.33325 9.85555 6.39725 10.014 6.52525 10.142C6.65325 10.27 6.81147 10.3338 6.99992 10.3333ZM6.99992 4.99999C7.18881 4.99999 7.34725 4.93599 7.47525 4.80799C7.60325 4.67999 7.66703 4.52177 7.66659 4.33333C7.66614 4.14488 7.60214 3.98666 7.47459 3.85866C7.34703 3.73066 7.18881 3.66666 6.99992 3.66666C6.81103 3.66666 6.65281 3.73066 6.52525 3.85866C6.3977 3.98666 6.3337 4.14488 6.33325 4.33333C6.33281 4.52177 6.39681 4.68022 6.52525 4.80866C6.6537 4.93711 6.81192 5.00088 6.99992 4.99999ZM6.99992 13.6667C6.0777 13.6667 5.21103 13.4915 4.39992 13.1413C3.58881 12.7911 2.88325 12.3162 2.28325 11.7167C1.68325 11.1171 1.20836 10.4115 0.858586 9.59999C0.508808 8.78844 0.333697 7.92177 0.333253 6.99999C0.332808 6.07822 0.50792 5.21155 0.858586 4.39999C1.20925 3.58844 1.68414 2.88288 2.28325 2.28333C2.88236 1.68377 3.58792 1.20888 4.39992 0.858662C5.21192 0.508439 6.07859 0.333328 6.99992 0.333328C7.92125 0.333328 8.78792 0.508439 9.59992 0.858662C10.4119 1.20888 11.1175 1.68377 11.7166 2.28333C12.3157 2.88288 12.7908 3.58844 13.1419 4.39999C13.493 5.21155 13.6679 6.07822 13.6666 6.99999C13.6653 7.92177 13.4901 8.78844 13.1413 9.59999C12.7924 10.4115 12.3175 11.1171 11.7166 11.7167C11.1157 12.3162 10.4101 12.7913 9.59992 13.142C8.7897 13.4927 7.92303 13.6676 6.99992 13.6667ZM6.99992 12.3333C8.48881 12.3333 9.74992 11.8167 10.7833 10.7833C11.8166 9.74999 12.3333 8.48888 12.3333 6.99999C12.3333 5.51111 11.8166 4.24999 10.7833 3.21666C9.74992 2.18333 8.48881 1.66666 6.99992 1.66666C5.51103 1.66666 4.24992 2.18333 3.21659 3.21666C2.18325 4.24999 1.66659 5.51111 1.66659 6.99999C1.66659 8.48888 2.18325 9.74999 3.21659 10.7833C4.24992 11.8167 5.51103 12.3333 6.99992 12.3333Z" fill="#C0C0C0"/>
</svg>
